<?xml version="1.0" encoding="UTF-8"?>
<svg xmlns="http://www.w3.org/2000/svg" xmlns:xlink="http://www.w3.org/1999/xlink" fill-opacity="1" color-rendering="auto" color-interpolation="auto" stroke="black" text-rendering="auto" stroke-linecap="square" width="173" stroke-miterlimit="10" stroke-opacity="1" shape-rendering="auto" fill="black" stroke-dasharray="none" font-weight="normal" stroke-width="1" height="230" font-family="'Dialog'" font-style="normal" stroke-linejoin="miter" font-size="12" stroke-dashoffset="0" image-rendering="auto">
  <!--Generated by ySVG-->
  <defs id="genericDefs"/>
  <g>
    <defs id="defs1">
      <linearGradient x1="75" gradientUnits="userSpaceOnUse" x2="75" y1="-1" y2="21.5" id="linearGradient1" spreadMethod="pad">
        <stop stop-opacity="1" stop-color="rgb(239,239,239)" offset="0%"/>
        <stop stop-opacity="1" stop-color="rgb(205,205,205)" offset="100%"/>
      </linearGradient>
      <linearGradient x1="32.5" gradientUnits="userSpaceOnUse" x2="32.5" y1="59" y2="81.5" id="linearGradient2" spreadMethod="pad">
        <stop stop-opacity="1" stop-color="rgb(239,239,239)" offset="0%"/>
        <stop stop-opacity="1" stop-color="rgb(205,205,205)" offset="100%"/>
      </linearGradient>
      <linearGradient x1="117.5" gradientUnits="userSpaceOnUse" x2="117.5" y1="59" y2="81.5" id="linearGradient3" spreadMethod="pad">
        <stop stop-opacity="1" stop-color="rgb(239,239,239)" offset="0%"/>
        <stop stop-opacity="1" stop-color="rgb(205,205,205)" offset="100%"/>
      </linearGradient>
      <linearGradient x1="117.5" gradientUnits="userSpaceOnUse" x2="117.5" y1="119" y2="141.5" id="linearGradient4" spreadMethod="pad">
        <stop stop-opacity="1" stop-color="rgb(239,239,239)" offset="0%"/>
        <stop stop-opacity="1" stop-color="rgb(205,205,205)" offset="100%"/>
      </linearGradient>
      <linearGradient x1="0" gradientUnits="userSpaceOnUse" x2="0" y1="179" y2="201.5" id="linearGradient5" spreadMethod="pad">
        <stop stop-opacity="1" stop-color="rgb(239,239,239)" offset="0%"/>
        <stop stop-opacity="1" stop-color="rgb(205,205,205)" offset="100%"/>
      </linearGradient>
      <linearGradient x1="32.5" gradientUnits="userSpaceOnUse" x2="32.5" y1="119" y2="141.5" id="linearGradient6" spreadMethod="pad">
        <stop stop-opacity="1" stop-color="rgb(239,239,239)" offset="0%"/>
        <stop stop-opacity="1" stop-color="rgb(205,205,205)" offset="100%"/>
      </linearGradient>
      <linearGradient x1="65" gradientUnits="userSpaceOnUse" x2="65" y1="179" y2="201.5" id="linearGradient7" spreadMethod="pad">
        <stop stop-opacity="1" stop-color="rgb(239,239,239)" offset="0%"/>
        <stop stop-opacity="1" stop-color="rgb(205,205,205)" offset="100%"/>
      </linearGradient>
      <clipPath clipPathUnits="userSpaceOnUse" id="clipPath1">
        <path d="M0 0 L173 0 L173 230 L0 230 L0 0 Z"/>
      </clipPath>
      <clipPath clipPathUnits="userSpaceOnUse" id="clipPath2">
        <path d="M-15 -15 L158 -15 L158 215 L-15 215 L-15 -15 Z"/>
      </clipPath>
    </defs>
    <g fill="silver" transform="matrix(1,0,0,1,15,15)" stroke="silver">
      <path d="M75 9 L100 9 L100 10 Q100 20 90 20 L85 20 Q75 20 75 10 Z" clip-path="url(#clipPath2)" stroke="none"/>
      <path fill="url(#linearGradient1)" d="M75 10 Q75 0 85 0 L90 0 Q100 0 100 10 L100 10 L75 10 Z" clip-path="url(#clipPath2)" stroke="none"/>
      <path fill="none" stroke-width="2" d="M77 10 Q77 2 85 2 L90 2 Q98 2 98 10 L98 10 Q98 18 90 18 L85 18 Q77 18 77 10 Z" clip-path="url(#clipPath2)" stroke="rgb(246,246,246)"/>
      <path fill="none" d="M77 10 Q77 2 85 2 L90 2 Q98 2 98 10 L98 10 Q98 18 90 18 L85 18 Q77 18 77 10 Z" clip-path="url(#clipPath2)"/>
      <text x="84.5" y="13" clip-path="url(#clipPath2)" fill="black" font-family="'Times'" stroke="none" xml:space="preserve">d</text>
    </g>
    <g fill="silver" transform="matrix(1,0,0,1,15,15)" stroke="silver">
      <path d="M32.5 69 L57.5 69 L57.5 70 Q57.5 80 47.5 80 L42.5 80 Q32.5 80 32.5 70 Z" clip-path="url(#clipPath2)" stroke="none"/>
      <path fill="url(#linearGradient2)" d="M32.5 70 Q32.5 60 42.5 60 L47.5 60 Q57.5 60 57.5 70 L57.5 70 L32.5 70 Z" clip-path="url(#clipPath2)" stroke="none"/>
      <path fill="none" stroke-width="2" d="M34.5 70 Q34.5 62 42.5 62 L47.5 62 Q55.5 62 55.5 70 L55.5 70 Q55.5 78 47.5 78 L42.5 78 Q34.5 78 34.5 70 Z" clip-path="url(#clipPath2)" stroke="rgb(246,246,246)"/>
      <path fill="none" d="M34.5 70 Q34.5 62 42.5 62 L47.5 62 Q55.5 62 55.5 70 L55.5 70 Q55.5 78 47.5 78 L42.5 78 Q34.5 78 34.5 70 Z" clip-path="url(#clipPath2)"/>
      <text x="42.3369" y="73" clip-path="url(#clipPath2)" fill="black" font-family="'Times'" stroke="none" xml:space="preserve">a</text>
    </g>
    <g fill="silver" transform="matrix(1,0,0,1,15,15)" stroke="silver">
      <path d="M117.5 69 L142.5 69 L142.5 70 Q142.5 80 132.5 80 L127.5 80 Q117.5 80 117.5 70 Z" clip-path="url(#clipPath2)" stroke="none"/>
      <path fill="url(#linearGradient3)" d="M117.5 70 Q117.5 60 127.5 60 L132.5 60 Q142.5 60 142.5 70 L142.5 70 L117.5 70 Z" clip-path="url(#clipPath2)" stroke="none"/>
      <path fill="none" stroke-width="2" d="M119.5 70 Q119.5 62 127.5 62 L132.5 62 Q140.5 62 140.5 70 L140.5 70 Q140.5 78 132.5 78 L127.5 78 Q119.5 78 119.5 70 Z" clip-path="url(#clipPath2)" stroke="rgb(246,246,246)"/>
      <path fill="none" d="M119.5 70 Q119.5 62 127.5 62 L132.5 62 Q140.5 62 140.5 70 L140.5 70 Q140.5 78 132.5 78 L127.5 78 Q119.5 78 119.5 70 Z" clip-path="url(#clipPath2)"/>
      <text x="127.3369" y="73" clip-path="url(#clipPath2)" fill="black" font-family="'Times'" stroke="none" xml:space="preserve">e</text>
    </g>
    <g fill="silver" transform="matrix(1,0,0,1,15,15)" stroke="silver">
      <path d="M117.5 129 L142.5 129 L142.5 130 Q142.5 140 132.5 140 L127.5 140 Q117.5 140 117.5 130 Z" clip-path="url(#clipPath2)" stroke="none"/>
      <path fill="url(#linearGradient4)" d="M117.5 130 Q117.5 120 127.5 120 L132.5 120 Q142.5 120 142.5 130 L142.5 130 L117.5 130 Z" clip-path="url(#clipPath2)" stroke="none"/>
      <path fill="none" stroke-width="2" d="M119.5 130 Q119.5 122 127.5 122 L132.5 122 Q140.5 122 140.5 130 L140.5 130 Q140.5 138 132.5 138 L127.5 138 Q119.5 138 119.5 130 Z" clip-path="url(#clipPath2)" stroke="rgb(246,246,246)"/>
      <path fill="none" d="M119.5 130 Q119.5 122 127.5 122 L132.5 122 Q140.5 122 140.5 130 L140.5 130 Q140.5 138 132.5 138 L127.5 138 Q119.5 138 119.5 130 Z" clip-path="url(#clipPath2)"/>
      <text x="127" y="133" clip-path="url(#clipPath2)" fill="black" font-family="'Times'" stroke="none" xml:space="preserve">b</text>
    </g>
    <g fill="silver" transform="matrix(1,0,0,1,15,15)" stroke="silver">
      <path d="M0 189 L25 189 L25 190 Q25 200 15 200 L10 200 Q0 200 0 190 Z" clip-path="url(#clipPath2)" stroke="none"/>
      <path fill="url(#linearGradient5)" d="M0 190 Q0 180 10 180 L15 180 Q25 180 25 190 L25 190 L0 190 Z" clip-path="url(#clipPath2)" stroke="none"/>
      <path fill="none" stroke-width="2" d="M2 190 Q2 182 10 182 L15 182 Q23 182 23 190 L23 190 Q23 198 15 198 L10 198 Q2 198 2 190 Z" clip-path="url(#clipPath2)" stroke="rgb(246,246,246)"/>
      <path fill="none" d="M2 190 Q2 182 10 182 L15 182 Q23 182 23 190 L23 190 Q23 198 15 198 L10 198 Q2 198 2 190 Z" clip-path="url(#clipPath2)"/>
      <text x="9.8369" y="193" clip-path="url(#clipPath2)" fill="black" font-family="'Times'" stroke="none" xml:space="preserve">c</text>
    </g>
    <g fill="silver" transform="matrix(1,0,0,1,15,15)" stroke="silver">
      <path d="M32.5 129 L57.5 129 L57.5 130 Q57.5 140 47.5 140 L42.5 140 Q32.5 140 32.5 130 Z" clip-path="url(#clipPath2)" stroke="none"/>
      <path fill="url(#linearGradient6)" d="M32.5 130 Q32.5 120 42.5 120 L47.5 120 Q57.5 120 57.5 130 L57.5 130 L32.5 130 Z" clip-path="url(#clipPath2)" stroke="none"/>
      <path fill="none" stroke-width="2" d="M34.5 130 Q34.5 122 42.5 122 L47.5 122 Q55.5 122 55.5 130 L55.5 130 Q55.5 138 47.5 138 L42.5 138 Q34.5 138 34.5 130 Z" clip-path="url(#clipPath2)" stroke="rgb(246,246,246)"/>
      <path fill="none" d="M34.5 130 Q34.5 122 42.5 122 L47.5 122 Q55.5 122 55.5 130 L55.5 130 Q55.5 138 47.5 138 L42.5 138 Q34.5 138 34.5 130 Z" clip-path="url(#clipPath2)"/>
      <text x="42" y="133" clip-path="url(#clipPath2)" fill="black" font-family="'Times'" stroke="none" xml:space="preserve">g</text>
    </g>
    <g fill="silver" transform="matrix(1,0,0,1,15,15)" stroke="silver">
      <path d="M65 189 L90 189 L90 190 Q90 200 80 200 L75 200 Q65 200 65 190 Z" clip-path="url(#clipPath2)" stroke="none"/>
      <path fill="url(#linearGradient7)" d="M65 190 Q65 180 75 180 L80 180 Q90 180 90 190 L90 190 L65 190 Z" clip-path="url(#clipPath2)" stroke="none"/>
      <path fill="none" stroke-width="2" d="M67 190 Q67 182 75 182 L80 182 Q88 182 88 190 L88 190 Q88 198 80 198 L75 198 Q67 198 67 190 Z" clip-path="url(#clipPath2)" stroke="rgb(246,246,246)"/>
      <path fill="none" d="M67 190 Q67 182 75 182 L80 182 Q88 182 88 190 L88 190 Q88 198 80 198 L75 198 Q67 198 67 190 Z" clip-path="url(#clipPath2)"/>
      <text x="75.502" y="193" clip-path="url(#clipPath2)" fill="black" font-family="'Times'" stroke="none" xml:space="preserve">f</text>
    </g>
    <g stroke-width="4" stroke-miterlimit="1.45" transform="matrix(1,0,0,1,15,15)" stroke-linecap="butt">
      <path fill="none" d="M80.4236 19.9902 L52.0743 60.0127" clip-path="url(#clipPath2)"/>
    </g>
    <g stroke-linecap="butt" transform="matrix(1,0,0,1,15,15)" stroke-miterlimit="1.45">
      <path fill="none" d="M94.5764 19.9902 L122.9257 60.0127" clip-path="url(#clipPath2)"/>
      <path fill="none" d="M130 79.9902 L130 119.9883" clip-path="url(#clipPath2)"/>
      <path fill="none" stroke-width="4" d="M45 79.9902 L45 119.9883" clip-path="url(#clipPath2)"/>
      <path fill="none" d="M39.5886 139.9902 L17.9098 180.0127" clip-path="url(#clipPath2)"/>
      <path fill="none" stroke-width="4" d="M50.4114 139.9902 L72.0902 180.0127" clip-path="url(#clipPath2)"/>
    </g>
  </g>
</svg>
