<?xml version="1.0" encoding="UTF-8"?>
<svg xmlns="http://www.w3.org/2000/svg" xmlns:xlink="http://www.w3.org/1999/xlink" fill-opacity="1" color-rendering="auto" color-interpolation="auto" stroke="black" text-rendering="auto" stroke-linecap="square" width="295" stroke-miterlimit="10" stroke-opacity="1" shape-rendering="auto" fill="black" stroke-dasharray="none" font-weight="normal" stroke-width="1" height="131" font-family="'Dialog'" font-style="normal" stroke-linejoin="miter" font-size="12" stroke-dashoffset="0" image-rendering="auto">
  <!--Generated by ySVG-->
  <defs id="genericDefs"/>
  <g>
    <defs id="defs1">
      <linearGradient x1="114.0008" gradientUnits="userSpaceOnUse" x2="114.0008" y1="60.1396" y2="82.6396" id="linearGradient1" spreadMethod="pad">
        <stop stop-opacity="1" stop-color="rgb(239,239,239)" offset="0%"/>
        <stop stop-opacity="1" stop-color="rgb(205,205,205)" offset="100%"/>
      </linearGradient>
      <linearGradient x1="162.5008" gradientUnits="userSpaceOnUse" x2="162.5008" y1="10.1396" y2="32.6396" id="linearGradient2" spreadMethod="pad">
        <stop stop-opacity="1" stop-color="rgb(239,239,239)" offset="0%"/>
        <stop stop-opacity="1" stop-color="rgb(205,205,205)" offset="100%"/>
      </linearGradient>
      <linearGradient x1="187.0008" gradientUnits="userSpaceOnUse" x2="187.0008" y1="90.1396" y2="112.6396" id="linearGradient3" spreadMethod="pad">
        <stop stop-opacity="1" stop-color="rgb(239,239,239)" offset="0%"/>
        <stop stop-opacity="1" stop-color="rgb(205,205,205)" offset="100%"/>
      </linearGradient>
      <linearGradient x1="242.0008" gradientUnits="userSpaceOnUse" x2="242.0008" y1="45.1396" y2="67.6396" id="linearGradient4" spreadMethod="pad">
        <stop stop-opacity="1" stop-color="rgb(239,239,239)" offset="0%"/>
        <stop stop-opacity="1" stop-color="rgb(205,205,205)" offset="100%"/>
      </linearGradient>
      <linearGradient x1="267.0008" gradientUnits="userSpaceOnUse" x2="267.0008" y1="90.1396" y2="112.6396" id="linearGradient5" spreadMethod="pad">
        <stop stop-opacity="1" stop-color="rgb(239,239,239)" offset="0%"/>
        <stop stop-opacity="1" stop-color="rgb(205,205,205)" offset="100%"/>
      </linearGradient>
      <linearGradient x1="279.5008" gradientUnits="userSpaceOnUse" x2="279.5008" y1="10.1396" y2="32.6396" id="linearGradient6" spreadMethod="pad">
        <stop stop-opacity="1" stop-color="rgb(239,239,239)" offset="0%"/>
        <stop stop-opacity="1" stop-color="rgb(205,205,205)" offset="100%"/>
      </linearGradient>
      <linearGradient x1="353.0008" gradientUnits="userSpaceOnUse" x2="353.0008" y1="90.1396" y2="112.6396" id="linearGradient7" spreadMethod="pad">
        <stop stop-opacity="1" stop-color="rgb(239,239,239)" offset="0%"/>
        <stop stop-opacity="1" stop-color="rgb(205,205,205)" offset="100%"/>
      </linearGradient>
      <clipPath clipPathUnits="userSpaceOnUse" id="clipPath1">
        <path d="M0 0 L295 0 L295 131 L0 131 L0 0 Z"/>
      </clipPath>
      <clipPath clipPathUnits="userSpaceOnUse" id="clipPath2">
        <path d="M99 -4 L394 -4 L394 127 L99 127 L99 -4 Z"/>
      </clipPath>
    </defs>
    <g fill="silver" transform="matrix(1,0,0,1,-99,4)" stroke="silver">
      <path d="M114.0008 70.1396 L139.0008 70.1396 L139.0008 71.1396 Q139.0008 81.1396 129.0008 81.1396 L124.0008 81.1396 Q114.0008 81.1396 114.0008 71.1396 Z" clip-path="url(#clipPath2)" stroke="none"/>
      <path fill="url(#linearGradient1)" d="M114.0008 71.1396 Q114.0008 61.1396 124.0008 61.1396 L129.0008 61.1396 Q139.0008 61.1396 139.0008 71.1396 L139.0008 71.1396 L114.0008 71.1396 Z" clip-path="url(#clipPath2)" stroke="none"/>
      <path fill="none" stroke-width="2" d="M116.0008 71.1396 Q116.0008 63.1396 124.0008 63.1396 L129.0008 63.1396 Q137.0008 63.1396 137.0008 71.1396 L137.0008 71.1396 Q137.0008 79.1396 129.0008 79.1396 L124.0008 79.1396 Q116.0008 79.1396 116.0008 71.1396 Z" clip-path="url(#clipPath2)" stroke="rgb(246,246,246)"/>
      <path fill="none" d="M116.0008 71.1396 Q116.0008 63.1396 124.0008 63.1396 L129.0008 63.1396 Q137.0008 63.1396 137.0008 71.1396 L137.0008 71.1396 Q137.0008 79.1396 129.0008 79.1396 L124.0008 79.1396 Q116.0008 79.1396 116.0008 71.1396 Z" clip-path="url(#clipPath2)"/>
      <text x="123.5008" y="74.1396" clip-path="url(#clipPath2)" fill="black" font-family="'Times'" stroke="none" xml:space="preserve">d</text>
    </g>
    <g fill="silver" transform="matrix(1,0,0,1,-99,4)" stroke="silver">
      <path d="M162.5008 20.1396 L187.5008 20.1396 L187.5008 21.1396 Q187.5008 31.1396 177.5008 31.1396 L172.5008 31.1396 Q162.5008 31.1396 162.5008 21.1396 Z" clip-path="url(#clipPath2)" stroke="none"/>
      <path fill="url(#linearGradient2)" d="M162.5008 21.1396 Q162.5008 11.1396 172.5008 11.1396 L177.5008 11.1396 Q187.5008 11.1396 187.5008 21.1396 L187.5008 21.1396 L162.5008 21.1396 Z" clip-path="url(#clipPath2)" stroke="none"/>
      <path fill="none" stroke-width="2" d="M164.5008 21.1396 Q164.5008 13.1396 172.5008 13.1396 L177.5008 13.1396 Q185.5008 13.1396 185.5008 21.1396 L185.5008 21.1396 Q185.5008 29.1396 177.5008 29.1396 L172.5008 29.1396 Q164.5008 29.1396 164.5008 21.1396 Z" clip-path="url(#clipPath2)" stroke="rgb(246,246,246)"/>
      <path fill="none" d="M164.5008 21.1396 Q164.5008 13.1396 172.5008 13.1396 L177.5008 13.1396 Q185.5008 13.1396 185.5008 21.1396 L185.5008 21.1396 Q185.5008 29.1396 177.5008 29.1396 L172.5008 29.1396 Q164.5008 29.1396 164.5008 21.1396 Z" clip-path="url(#clipPath2)"/>
      <text x="172.3377" y="24.1396" clip-path="url(#clipPath2)" fill="black" font-family="'Times'" stroke="none" xml:space="preserve">a</text>
    </g>
    <g fill="silver" transform="matrix(1,0,0,1,-99,4)" stroke="silver">
      <path d="M187.0008 100.1396 L212.0008 100.1396 L212.0008 101.1396 Q212.0008 111.1396 202.0008 111.1396 L197.0008 111.1396 Q187.0008 111.1396 187.0008 101.1396 Z" clip-path="url(#clipPath2)" stroke="none"/>
      <path fill="url(#linearGradient3)" d="M187.0008 101.1396 Q187.0008 91.1396 197.0008 91.1396 L202.0008 91.1396 Q212.0008 91.1396 212.0008 101.1396 L212.0008 101.1396 L187.0008 101.1396 Z" clip-path="url(#clipPath2)" stroke="none"/>
      <path fill="none" stroke-width="2" d="M189.0008 101.1396 Q189.0008 93.1396 197.0008 93.1396 L202.0008 93.1396 Q210.0008 93.1396 210.0008 101.1396 L210.0008 101.1396 Q210.0008 109.1396 202.0008 109.1396 L197.0008 109.1396 Q189.0008 109.1396 189.0008 101.1396 Z" clip-path="url(#clipPath2)" stroke="rgb(246,246,246)"/>
      <path fill="none" d="M189.0008 101.1396 Q189.0008 93.1396 197.0008 93.1396 L202.0008 93.1396 Q210.0008 93.1396 210.0008 101.1396 L210.0008 101.1396 Q210.0008 109.1396 202.0008 109.1396 L197.0008 109.1396 Q189.0008 109.1396 189.0008 101.1396 Z" clip-path="url(#clipPath2)"/>
      <text x="196.8377" y="104.1396" clip-path="url(#clipPath2)" fill="black" font-family="'Times'" stroke="none" xml:space="preserve">e</text>
    </g>
    <g fill="silver" transform="matrix(1,0,0,1,-99,4)" stroke="silver">
      <path d="M242.0008 55.1396 L267.0008 55.1396 L267.0008 56.1396 Q267.0008 66.1396 257.0008 66.1396 L252.0008 66.1396 Q242.0008 66.1396 242.0008 56.1396 Z" clip-path="url(#clipPath2)" stroke="none"/>
      <path fill="url(#linearGradient4)" d="M242.0008 56.1396 Q242.0008 46.1396 252.0008 46.1396 L257.0008 46.1396 Q267.0008 46.1396 267.0008 56.1396 L267.0008 56.1396 L242.0008 56.1396 Z" clip-path="url(#clipPath2)" stroke="none"/>
      <path fill="none" stroke-width="2" d="M244.0008 56.1396 Q244.0008 48.1396 252.0008 48.1396 L257.0008 48.1396 Q265.0008 48.1396 265.0008 56.1396 L265.0008 56.1396 Q265.0008 64.1396 257.0008 64.1396 L252.0008 64.1396 Q244.0008 64.1396 244.0008 56.1396 Z" clip-path="url(#clipPath2)" stroke="rgb(246,246,246)"/>
      <path fill="none" d="M244.0008 56.1396 Q244.0008 48.1396 252.0008 48.1396 L257.0008 48.1396 Q265.0008 48.1396 265.0008 56.1396 L265.0008 56.1396 Q265.0008 64.1396 257.0008 64.1396 L252.0008 64.1396 Q244.0008 64.1396 244.0008 56.1396 Z" clip-path="url(#clipPath2)"/>
      <text x="251.5008" y="59.1396" clip-path="url(#clipPath2)" fill="black" font-family="'Times'" stroke="none" xml:space="preserve">b</text>
    </g>
    <g fill="silver" transform="matrix(1,0,0,1,-99,4)" stroke="silver">
      <path d="M267.0008 100.1396 L292.0008 100.1396 L292.0008 101.1396 Q292.0008 111.1396 282.0008 111.1396 L277.0008 111.1396 Q267.0008 111.1396 267.0008 101.1396 Z" clip-path="url(#clipPath2)" stroke="none"/>
      <path fill="url(#linearGradient5)" d="M267.0008 101.1396 Q267.0008 91.1396 277.0008 91.1396 L282.0008 91.1396 Q292.0008 91.1396 292.0008 101.1396 L292.0008 101.1396 L267.0008 101.1396 Z" clip-path="url(#clipPath2)" stroke="none"/>
      <path fill="none" stroke-width="2" d="M269.0008 101.1396 Q269.0008 93.1396 277.0008 93.1396 L282.0008 93.1396 Q290.0008 93.1396 290.0008 101.1396 L290.0008 101.1396 Q290.0008 109.1396 282.0008 109.1396 L277.0008 109.1396 Q269.0008 109.1396 269.0008 101.1396 Z" clip-path="url(#clipPath2)" stroke="rgb(246,246,246)"/>
      <path fill="none" d="M269.0008 101.1396 Q269.0008 93.1396 277.0008 93.1396 L282.0008 93.1396 Q290.0008 93.1396 290.0008 101.1396 L290.0008 101.1396 Q290.0008 109.1396 282.0008 109.1396 L277.0008 109.1396 Q269.0008 109.1396 269.0008 101.1396 Z" clip-path="url(#clipPath2)"/>
      <text x="276.8377" y="104.1396" clip-path="url(#clipPath2)" fill="black" font-family="'Times'" stroke="none" xml:space="preserve">c</text>
    </g>
    <g fill="silver" transform="matrix(1,0,0,1,-99,4)" stroke="silver">
      <path d="M279.5008 20.1396 L304.5008 20.1396 L304.5008 21.1396 Q304.5008 31.1396 294.5008 31.1396 L289.5008 31.1396 Q279.5008 31.1396 279.5008 21.1396 Z" clip-path="url(#clipPath2)" stroke="none"/>
      <path fill="url(#linearGradient6)" d="M279.5008 21.1396 Q279.5008 11.1396 289.5008 11.1396 L294.5008 11.1396 Q304.5008 11.1396 304.5008 21.1396 L304.5008 21.1396 L279.5008 21.1396 Z" clip-path="url(#clipPath2)" stroke="none"/>
      <path fill="none" stroke-width="2" d="M281.5008 21.1396 Q281.5008 13.1396 289.5008 13.1396 L294.5008 13.1396 Q302.5008 13.1396 302.5008 21.1396 L302.5008 21.1396 Q302.5008 29.1396 294.5008 29.1396 L289.5008 29.1396 Q281.5008 29.1396 281.5008 21.1396 Z" clip-path="url(#clipPath2)" stroke="rgb(246,246,246)"/>
      <path fill="none" d="M281.5008 21.1396 Q281.5008 13.1396 289.5008 13.1396 L294.5008 13.1396 Q302.5008 13.1396 302.5008 21.1396 L302.5008 21.1396 Q302.5008 29.1396 294.5008 29.1396 L289.5008 29.1396 Q281.5008 29.1396 281.5008 21.1396 Z" clip-path="url(#clipPath2)"/>
      <text x="289.0008" y="24.1396" clip-path="url(#clipPath2)" fill="black" font-family="'Times'" stroke="none" xml:space="preserve">g</text>
    </g>
    <g fill="silver" transform="matrix(1,0,0,1,-99,4)" stroke="silver">
      <path d="M353.0008 100.1396 L378.0008 100.1396 L378.0008 101.1396 Q378.0008 111.1396 368.0008 111.1396 L363.0008 111.1396 Q353.0008 111.1396 353.0008 101.1396 Z" clip-path="url(#clipPath2)" stroke="none"/>
      <path fill="url(#linearGradient7)" d="M353.0008 101.1396 Q353.0008 91.1396 363.0008 91.1396 L368.0008 91.1396 Q378.0008 91.1396 378.0008 101.1396 L378.0008 101.1396 L353.0008 101.1396 Z" clip-path="url(#clipPath2)" stroke="none"/>
      <path fill="none" stroke-width="2" d="M355.0008 101.1396 Q355.0008 93.1396 363.0008 93.1396 L368.0008 93.1396 Q376.0008 93.1396 376.0008 101.1396 L376.0008 101.1396 Q376.0008 109.1396 368.0008 109.1396 L363.0008 109.1396 Q355.0008 109.1396 355.0008 101.1396 Z" clip-path="url(#clipPath2)" stroke="rgb(246,246,246)"/>
      <path fill="none" d="M355.0008 101.1396 Q355.0008 93.1396 363.0008 93.1396 L368.0008 93.1396 Q376.0008 93.1396 376.0008 101.1396 L376.0008 101.1396 Q376.0008 109.1396 368.0008 109.1396 L363.0008 109.1396 Q355.0008 109.1396 355.0008 101.1396 Z" clip-path="url(#clipPath2)"/>
      <text x="363.5027" y="104.1396" clip-path="url(#clipPath2)" fill="black" font-family="'Times'" stroke="none" xml:space="preserve">f</text>
    </g>
    <g stroke-linecap="butt" transform="matrix(1,0,0,1,-99,4)" stroke-miterlimit="1.45">
      <path fill="none" d="M135.6182 61.7402 L165.8667 30.5562" clip-path="url(#clipPath2)"/>
    </g>
    <g stroke-linecap="butt" transform="matrix(1,0,0,1,-99,4)" stroke-miterlimit="1.45">
      <path fill="none" d="M138.8694 76.2226 L187.0962 96.0418" clip-path="url(#clipPath2)"/>
      <path fill="none" d="M187.4835 21.1396 L279.523 21.1396" clip-path="url(#clipPath2)"/>
      <path fill="none" d="M290.4444 31.1005 L281.0665 91.1194" clip-path="url(#clipPath2)"/>
      <path fill="none" d="M300.7756 30.6904 L356.7465 91.6111" clip-path="url(#clipPath2)"/>
    </g>
  </g>
</svg>
