<?xml version="1.0" encoding="UTF-8"?>
<svg xmlns="http://www.w3.org/2000/svg" xmlns:xlink="http://www.w3.org/1999/xlink" fill-opacity="1" color-rendering="auto" color-interpolation="auto" stroke="black" text-rendering="auto" stroke-linecap="square" width="280" stroke-miterlimit="10" stroke-opacity="1" shape-rendering="auto" fill="black" stroke-dasharray="none" font-weight="normal" stroke-width="1" height="130" font-family="'Dialog'" font-style="normal" stroke-linejoin="miter" font-size="12" stroke-dashoffset="0" image-rendering="auto">
  <!--Generated by ySVG-->
  <defs id="genericDefs"/>
  <g>
    <defs id="defs1">
      <linearGradient x1="160" gradientUnits="userSpaceOnUse" x2="160" y1="89" y2="111.5" id="linearGradient1" spreadMethod="pad">
        <stop stop-opacity="1" stop-color="rgb(239,239,239)" offset="0%"/>
        <stop stop-opacity="1" stop-color="rgb(205,205,205)" offset="100%"/>
      </linearGradient>
      <linearGradient x1="160" gradientUnits="userSpaceOnUse" x2="160" y1="9" y2="31.5" id="linearGradient2" spreadMethod="pad">
        <stop stop-opacity="1" stop-color="rgb(239,239,239)" offset="0%"/>
        <stop stop-opacity="1" stop-color="rgb(205,205,205)" offset="100%"/>
      </linearGradient>
      <linearGradient x1="240" gradientUnits="userSpaceOnUse" x2="240" y1="89" y2="111.5" id="linearGradient3" spreadMethod="pad">
        <stop stop-opacity="1" stop-color="rgb(239,239,239)" offset="0%"/>
        <stop stop-opacity="1" stop-color="rgb(205,205,205)" offset="100%"/>
      </linearGradient>
      <linearGradient x1="240" gradientUnits="userSpaceOnUse" x2="240" y1="9" y2="31.5" id="linearGradient4" spreadMethod="pad">
        <stop stop-opacity="1" stop-color="rgb(239,239,239)" offset="0%"/>
        <stop stop-opacity="1" stop-color="rgb(205,205,205)" offset="100%"/>
      </linearGradient>
      <linearGradient x1="340" gradientUnits="userSpaceOnUse" x2="340" y1="59" y2="81.5" id="linearGradient5" spreadMethod="pad">
        <stop stop-opacity="1" stop-color="rgb(239,239,239)" offset="0%"/>
        <stop stop-opacity="1" stop-color="rgb(205,205,205)" offset="100%"/>
      </linearGradient>
      <linearGradient x1="305" gradientUnits="userSpaceOnUse" x2="305" y1="89" y2="111.5" id="linearGradient6" spreadMethod="pad">
        <stop stop-opacity="1" stop-color="rgb(239,239,239)" offset="0%"/>
        <stop stop-opacity="1" stop-color="rgb(205,205,205)" offset="100%"/>
      </linearGradient>
      <linearGradient x1="385" gradientUnits="userSpaceOnUse" x2="385" y1="89" y2="111.5" id="linearGradient7" spreadMethod="pad">
        <stop stop-opacity="1" stop-color="rgb(239,239,239)" offset="0%"/>
        <stop stop-opacity="1" stop-color="rgb(205,205,205)" offset="100%"/>
      </linearGradient>
      <linearGradient x1="340" gradientUnits="userSpaceOnUse" x2="340" y1="9" y2="31.5" id="linearGradient8" spreadMethod="pad">
        <stop stop-opacity="1" stop-color="rgb(239,239,239)" offset="0%"/>
        <stop stop-opacity="1" stop-color="rgb(205,205,205)" offset="100%"/>
      </linearGradient>
      <clipPath clipPathUnits="userSpaceOnUse" id="clipPath1">
        <path d="M0 0 L280 0 L280 130 L0 130 L0 0 Z"/>
      </clipPath>
      <clipPath clipPathUnits="userSpaceOnUse" id="clipPath2">
        <path d="M145 -5 L425 -5 L425 125 L145 125 L145 -5 Z"/>
      </clipPath>
    </defs>
    <g fill="silver" transform="matrix(1,0,0,1,-145,5)" stroke="silver">
      <path d="M160 99 L185 99 L185 100 Q185 110 175 110 L170 110 Q160 110 160 100 Z" clip-path="url(#clipPath2)" stroke="none"/>
      <path fill="url(#linearGradient1)" d="M160 100 Q160 90 170 90 L175 90 Q185 90 185 100 L185 100 L160 100 Z" clip-path="url(#clipPath2)" stroke="none"/>
      <path fill="none" stroke-width="2" d="M162 100 Q162 92 170 92 L175 92 Q183 92 183 100 L183 100 Q183 108 175 108 L170 108 Q162 108 162 100 Z" clip-path="url(#clipPath2)" stroke="rgb(246,246,246)"/>
      <path fill="none" d="M162 100 Q162 92 170 92 L175 92 Q183 92 183 100 L183 100 Q183 108 175 108 L170 108 Q162 108 162 100 Z" clip-path="url(#clipPath2)"/>
      <text x="169.5" y="103" clip-path="url(#clipPath2)" fill="black" font-family="'Times'" stroke="none" xml:space="preserve">d</text>
    </g>
    <g fill="silver" transform="matrix(1,0,0,1,-145,5)" stroke="silver">
      <path d="M160 19 L185 19 L185 20 Q185 30 175 30 L170 30 Q160 30 160 20 Z" clip-path="url(#clipPath2)" stroke="none"/>
      <path fill="url(#linearGradient2)" d="M160 20 Q160 10 170 10 L175 10 Q185 10 185 20 L185 20 L160 20 Z" clip-path="url(#clipPath2)" stroke="none"/>
      <path fill="none" stroke-width="2" d="M162 20 Q162 12 170 12 L175 12 Q183 12 183 20 L183 20 Q183 28 175 28 L170 28 Q162 28 162 20 Z" clip-path="url(#clipPath2)" stroke="rgb(246,246,246)"/>
      <path fill="none" d="M162 20 Q162 12 170 12 L175 12 Q183 12 183 20 L183 20 Q183 28 175 28 L170 28 Q162 28 162 20 Z" clip-path="url(#clipPath2)"/>
      <text x="169.8369" y="23" clip-path="url(#clipPath2)" fill="black" font-family="'Times'" stroke="none" xml:space="preserve">a</text>
    </g>
    <g fill="silver" transform="matrix(1,0,0,1,-145,5)" stroke="silver">
      <path d="M240 99 L265 99 L265 100 Q265 110 255 110 L250 110 Q240 110 240 100 Z" clip-path="url(#clipPath2)" stroke="none"/>
      <path fill="url(#linearGradient3)" d="M240 100 Q240 90 250 90 L255 90 Q265 90 265 100 L265 100 L240 100 Z" clip-path="url(#clipPath2)" stroke="none"/>
      <path fill="none" stroke-width="2" d="M242 100 Q242 92 250 92 L255 92 Q263 92 263 100 L263 100 Q263 108 255 108 L250 108 Q242 108 242 100 Z" clip-path="url(#clipPath2)" stroke="rgb(246,246,246)"/>
      <path fill="none" d="M242 100 Q242 92 250 92 L255 92 Q263 92 263 100 L263 100 Q263 108 255 108 L250 108 Q242 108 242 100 Z" clip-path="url(#clipPath2)"/>
      <text x="249.8369" y="103" clip-path="url(#clipPath2)" fill="black" font-family="'Times'" stroke="none" xml:space="preserve">c</text>
    </g>
    <g fill="silver" transform="matrix(1,0,0,1,-145,5)" stroke="silver">
      <path d="M240 19 L265 19 L265 20 Q265 30 255 30 L250 30 Q240 30 240 20 Z" clip-path="url(#clipPath2)" stroke="none"/>
      <path fill="url(#linearGradient4)" d="M240 20 Q240 10 250 10 L255 10 Q265 10 265 20 L265 20 L240 20 Z" clip-path="url(#clipPath2)" stroke="none"/>
      <path fill="none" stroke-width="2" d="M242 20 Q242 12 250 12 L255 12 Q263 12 263 20 L263 20 Q263 28 255 28 L250 28 Q242 28 242 20 Z" clip-path="url(#clipPath2)" stroke="rgb(246,246,246)"/>
      <path fill="none" d="M242 20 Q242 12 250 12 L255 12 Q263 12 263 20 L263 20 Q263 28 255 28 L250 28 Q242 28 242 20 Z" clip-path="url(#clipPath2)"/>
      <text x="249.5" y="23" clip-path="url(#clipPath2)" fill="black" font-family="'Times'" stroke="none" xml:space="preserve">b</text>
    </g>
    <g fill="silver" transform="matrix(1,0,0,1,-145,5)" stroke="silver">
      <path d="M340 69 L365 69 L365 70 Q365 80 355 80 L350 80 Q340 80 340 70 Z" clip-path="url(#clipPath2)" stroke="none"/>
      <path fill="url(#linearGradient5)" d="M340 70 Q340 60 350 60 L355 60 Q365 60 365 70 L365 70 L340 70 Z" clip-path="url(#clipPath2)" stroke="none"/>
      <path fill="none" stroke-width="2" d="M342 70 Q342 62 350 62 L355 62 Q363 62 363 70 L363 70 Q363 78 355 78 L350 78 Q342 78 342 70 Z" clip-path="url(#clipPath2)" stroke="rgb(246,246,246)"/>
      <path fill="none" d="M342 70 Q342 62 350 62 L355 62 Q363 62 363 70 L363 70 Q363 78 355 78 L350 78 Q342 78 342 70 Z" clip-path="url(#clipPath2)"/>
      <text x="349.5" y="73" clip-path="url(#clipPath2)" fill="black" font-family="'Times'" stroke="none" xml:space="preserve">d</text>
    </g>
    <g fill="silver" transform="matrix(1,0,0,1,-145,5)" stroke="silver">
      <path d="M305 99 L330 99 L330 100 Q330 110 320 110 L315 110 Q305 110 305 100 Z" clip-path="url(#clipPath2)" stroke="none"/>
      <path fill="url(#linearGradient6)" d="M305 100 Q305 90 315 90 L320 90 Q330 90 330 100 L330 100 L305 100 Z" clip-path="url(#clipPath2)" stroke="none"/>
      <path fill="none" stroke-width="2" d="M307 100 Q307 92 315 92 L320 92 Q328 92 328 100 L328 100 Q328 108 320 108 L315 108 Q307 108 307 100 Z" clip-path="url(#clipPath2)" stroke="rgb(246,246,246)"/>
      <path fill="none" d="M307 100 Q307 92 315 92 L320 92 Q328 92 328 100 L328 100 Q328 108 320 108 L315 108 Q307 108 307 100 Z" clip-path="url(#clipPath2)"/>
      <text x="314.8369" y="103" clip-path="url(#clipPath2)" fill="black" font-family="'Times'" stroke="none" xml:space="preserve">a</text>
    </g>
    <g fill="silver" transform="matrix(1,0,0,1,-145,5)" stroke="silver">
      <path d="M385 99 L410 99 L410 100 Q410 110 400 110 L395 110 Q385 110 385 100 Z" clip-path="url(#clipPath2)" stroke="none"/>
      <path fill="url(#linearGradient7)" d="M385 100 Q385 90 395 90 L400 90 Q410 90 410 100 L410 100 L385 100 Z" clip-path="url(#clipPath2)" stroke="none"/>
      <path fill="none" stroke-width="2" d="M387 100 Q387 92 395 92 L400 92 Q408 92 408 100 L408 100 Q408 108 400 108 L395 108 Q387 108 387 100 Z" clip-path="url(#clipPath2)" stroke="rgb(246,246,246)"/>
      <path fill="none" d="M387 100 Q387 92 395 92 L400 92 Q408 92 408 100 L408 100 Q408 108 400 108 L395 108 Q387 108 387 100 Z" clip-path="url(#clipPath2)"/>
      <text x="394.8369" y="103" clip-path="url(#clipPath2)" fill="black" font-family="'Times'" stroke="none" xml:space="preserve">c</text>
    </g>
    <g fill="silver" transform="matrix(1,0,0,1,-145,5)" stroke="silver">
      <path d="M340 19 L365 19 L365 20 Q365 30 355 30 L350 30 Q340 30 340 20 Z" clip-path="url(#clipPath2)" stroke="none"/>
      <path fill="url(#linearGradient8)" d="M340 20 Q340 10 350 10 L355 10 Q365 10 365 20 L365 20 L340 20 Z" clip-path="url(#clipPath2)" stroke="none"/>
      <path fill="none" stroke-width="2" d="M342 20 Q342 12 350 12 L355 12 Q363 12 363 20 L363 20 Q363 28 355 28 L350 28 Q342 28 342 20 Z" clip-path="url(#clipPath2)" stroke="rgb(246,246,246)"/>
      <path fill="none" d="M342 20 Q342 12 350 12 L355 12 Q363 12 363 20 L363 20 Q363 28 355 28 L350 28 Q342 28 342 20 Z" clip-path="url(#clipPath2)"/>
      <text x="349.5" y="23" clip-path="url(#clipPath2)" fill="black" font-family="'Times'" stroke="none" xml:space="preserve">b</text>
    </g>
    <g stroke-linecap="butt" transform="matrix(1,0,0,1,-145,5)" stroke-miterlimit="1.45">
      <path fill="none" d="M172.5 89.9609 L172.5 30.0091" clip-path="url(#clipPath2)"/>
    </g>
    <g stroke-linecap="butt" transform="matrix(1,0,0,1,-145,5)" stroke-miterlimit="1.45">
      <path fill="none" d="M184.9609 100 L240.0013 100" clip-path="url(#clipPath2)"/>
      <path fill="none" d="M181.8164 29.3164 L243.2159 90.7159" clip-path="url(#clipPath2)"/>
      <path fill="none" d="M184.9609 20 L240.0013 20" clip-path="url(#clipPath2)"/>
      <path fill="none" d="M252.5 29.9609 L252.5 89.9798" clip-path="url(#clipPath2)"/>
      <path fill="none" d="M243.1836 29.3164 L181.7841 90.7159" clip-path="url(#clipPath2)"/>
      <path fill="none" d="M342.2803 78.7598 L327.688 91.2674" clip-path="url(#clipPath2)"/>
      <path fill="none" d="M363.8159 77.5439 L386.1514 92.4342" clip-path="url(#clipPath2)"/>
      <path fill="none" d="M329.9609 100 L385.0013 100" clip-path="url(#clipPath2)"/>
      <path fill="none" d="M321.8921 89.9609 L348.121 30.0091" clip-path="url(#clipPath2)"/>
      <path fill="none" d="M358.103 29.9609 L391.8636 89.9798" clip-path="url(#clipPath2)"/>
      <path fill="none" d="M352.5 30.0098 L352.5 59.9634" clip-path="url(#clipPath2)"/>
    </g>
  </g>
</svg>
